<svg width="72" height="72" fill="none" xmlns="http://www.w3.org/2000/svg"><circle cx="36" cy="36" r="36" fill="url(#a)"/><path fill-rule="evenodd" clip-rule="evenodd" d="M52.129 39.2258c0 1.6116-.7432 3.0516-1.9038 3.9994C53.5077 43.8465 56 46.7323 56 50.1936V56H41.1613v-7.4194c0-.5335-.4342-.9677-.9678-.9677h-.9677v1.151l-1.8019.4426c-.0794.2141-.1691.429-.2684.6419l.9626 1.5903-3.4529 3.4529-1.5904-.9626c-.2135.0994-.4277.1891-.6419.2684L31.9897 56h-4.8826l-.4426-1.8019c-.2142-.0794-.429-.1691-.6419-.2684l-1.5903.9626-3.4529-3.4529.9625-1.5904c-.0993-.2135-.189-.4277-.2684-.6419l-1.8025-.4432v-4.8826l1.8025-.4432c.0794-.2142.1691-.4284.2684-.642l-.9625-1.5903.6896-.6897h-1.1529c-1.0671 0-1.9355-.8684-1.9355-1.9355v-1.2903c0-1.0671.8684-1.9355 1.9355-1.9355h1.2904c.3561 0 .6451-.289.6451-.6451v-.6452H16v-3.2258c0-3.0084 1.8845-5.5787 4.5323-6.6097-1.1775-.8161-1.9517-2.1755-1.9517-3.7129 0-2.4896 2.0265-4.5161 4.5162-4.5161 2.4897 0 4.5161 2.0265 4.5161 4.5161 0 1.5374-.7742 2.8968-1.9516 3.7129 1.7245.671 3.1206 1.9955 3.8871 3.6704.7664-1.6749 2.1626-2.9988 3.8871-3.6704-1.1774-.8161-1.9516-2.1755-1.9516-3.7129C31.4839 18.0265 33.5103 16 36 16c2.4897 0 4.5161 2.0265 4.5161 4.5161 0 1.5374-.7742 2.8968-1.9516 3.7129 2.6478 1.031 4.5323 3.6013 4.5323 6.6097v3.2258h-6.4516v.6452c0 .3561.289.6451.6451.6451h1.2903c1.0671 0 1.9355.8684 1.9355 1.9355v1.2903c0 1.0671-.8684 1.9355-1.9355 1.9355h-1.1529l.6897.6897-.9632 1.5903c.0277.0598.0513.1197.0749.1797.0159.0404.0318.0807.049.121h6.2871c-1.0755-.9465-1.7587-2.3291-1.7587-3.871 0-2.8458 2.3154-5.1613 5.1612-5.1613s5.1613 2.3155 5.1613 5.1613Zm-5.1613-3.871c-2.1348 0-3.8709 1.7362-3.8709 3.871 0 2.1348 1.7361 3.871 3.8709 3.871 2.1349 0 3.871-1.7362 3.871-3.871 0-2.1348-1.7361-3.871-3.871-3.871ZM32.7742 20.5161c0-1.7787 1.4471-3.2258 3.2258-3.2258s3.2258 1.4471 3.2258 3.2258S37.7787 23.7419 36 23.7419s-3.2258-1.4471-3.2258-3.2258Zm9.0323 10.3226c0-3.2019-2.6046-5.8064-5.8065-5.8064-3.2019 0-5.8065 2.6045-5.8065 5.8064v1.9355h1.9355v-5.1613h1.2904v5.1613h5.1612v-5.1613h1.2904v5.1613h1.9355v-1.9355ZM19.871 20.5161c0-1.7787 1.4471-3.2258 3.2258-3.2258s3.2258 1.4471 3.2258 3.2258-1.4471 3.2258-3.2258 3.2258-3.2258-1.4471-3.2258-3.2258Zm3.2258 4.5162c-3.202 0-5.8065 2.6045-5.8065 5.8064v1.9355h1.9355v-5.1613h1.2903v5.1613h5.1613v-5.1613h1.2903v5.1613h1.9355v-1.9355c0-3.2019-2.6045-5.8064-5.8064-5.8064Zm-2.5807 14.1935c-.3561 0-.6451-.289-.6451-.6452v-1.2903c0-.3561.289-.6451.6451-.6451h1.2904c1.067 0 1.9354-.8684 1.9354-1.9355v-.6452h11.6129v.6452c0 1.0671.8684 1.9355 1.9355 1.9355h1.2903c.3562 0 .6452.289.6452.6451v1.2903c0 .3562-.289.6452-.6452.6452h-2.4432l-1.4722-1.4723-1.5904.9626c-.2135-.0993-.4277-.189-.6419-.2684l-.4432-1.8025h-4.8826l-.4432 1.8025c-.2142.0794-.4284.1691-.642.2684l-1.5903-.9626-1.4722 1.4723h-2.4433Zm15.9065 8.8987 1.5129-.3722v-.1394h-2.7258c-.5916 2.611-2.9316 4.5161-5.6613 4.5161-3.2019 0-5.8065-2.6045-5.8065-5.8064 0-3.202 2.6046-5.8065 5.8065-5.8065 1.9355 0 3.74.9845 4.8129 2.5813h1.5026c-.0058-.0116-.011-.0232-.0168-.0348l-.1671-.3213.8097-1.3381-2.0213-2.0213-1.3381.8097-.3213-.1671c-.3703-.1922-.7451-.349-1.1129-.4658l-.3458-.109-.3722-1.5142h-2.8594l-.3716 1.5135-.3458.1091c-.3684.1167-.7432.2735-1.1129.4658l-.3213.1671-1.3381-.8097-2.0213 2.0213.8097 1.338-.1671.3213c-.1922.3704-.349.7452-.4658 1.1129l-.109.3458-1.5142.3723v2.8594l1.5135.3716.1091.3458c.1167.3684.2735.7432.4658 1.1129l.1671.3213-.8097 1.338 2.0213 2.0213 1.3381-.8097.3212.1671c.3697.1923.7446.3491 1.1142.4665l.3446.1097.3722 1.5129h2.8594l.3716-1.5136.3458-.109c.3684-.1168.7432-.2736 1.1129-.4658l.3213-.1671 1.338.8097 2.0213-2.0213-.8096-1.3381.1671-.3213c.1922-.3696.349-.7445.4664-1.1142l.1097-.3445Zm-5.3329-.6393c-.3574.4729-.9187.7729-1.5413.7729-1.0671 0-1.9355-.8684-1.9355-1.9355s.8684-1.9355 1.9355-1.9355c.0456 0 .0901.0078.1348.0157.0255.0045.051.009.0768.012-.1329.2871-.2116.6033-.2116.94 0 .9929.6484 1.8291 1.5413 2.1304Zm-1.5413-4.3884c.4284 0 .8522.0871 1.2451.2509.3059-.1548.6471-.2509 1.013-.2509h.8974c-.8349-.8129-1.9645-1.2903-3.1555-1.2903-2.4897 0-4.5161 2.0264-4.5161 4.5161 0 2.4897 2.0264 4.5161 4.5161 4.5161 2.0226 0 3.7664-1.3445 4.3264-3.2258h-1.3709c-.5065 1.16-1.6568 1.9355-2.9555 1.9355-1.7787 0-3.2258-1.4471-3.2258-3.2258s1.4471-3.2258 3.2258-3.2258Zm25.1613 11.6129h-1.9355v-7.0968h-1.2903v7.0968h-9.0323v-6.1291c0-1.2451-1.0129-2.258-2.2581-2.258h-8.387c-.5336 0-.9678-.4342-.9678-.9678 0-.5335.4342-.9677.9678-.9677h17.0967c3.202 0 5.8065 2.6045 5.8065 5.8065v4.5161ZM56 28.2581c0-2.4897-2.0265-4.5162-4.5161-4.5162h-2.5807c-2.4897 0-4.5161 2.0265-4.5161 4.5162v4.5161h7.0968c2.4896 0 4.5161-2.0265 4.5161-4.5161Zm-10.3226 0c0-1.7787 1.4471-3.2258 3.2258-3.2258h2.5807c1.7787 0 3.2258 1.4471 3.2258 3.2258s-1.4471 3.2258-3.2258 3.2258h-5.8065v-3.2258Zm1.2903.6451h1.2904v1.2903h-1.2904v-1.2903Zm3.871 0h-1.2903v1.2903h1.2903v-1.2903Zm1.2903 0h1.2904v1.2903H52.129v-1.2903Zm1.2904-2.5806h-6.4517v1.2903h6.4517v-1.2903Z" fill="#fff"/><defs><linearGradient id="a" x1="-35.8489" y1="35.8489" x2="35.8489" y2="107.547" gradientUnits="userSpaceOnUse"><stop stop-color="#33D35E"/><stop offset="1" stop-color="#2AB6D9"/></linearGradient></defs></svg>