<svg width="72" height="72" fill="none" xmlns="http://www.w3.org/2000/svg"><circle cx="36" cy="36" r="36" fill="url(#a)"/><path fill-rule="evenodd" clip-rule="evenodd" d="M47.7249 19.092v7.5704c5.231.2859 9.3932 4.3645 9.3932 9.3376 0 4.9731-4.1624 9.0517-9.3934 9.3376v7.5704c0 1.7048-1.387 3.0919-3.0919 3.0919H27.0985c-1.7048 0-3.0919-1.387-3.0919-3.0919v-7.2407c0-.3243.2628-.5871.5871-.5871s.5871.2628.5871.5871v3.5225h21.3699v-3.852c-.9919-.0537-1.9606-.2435-2.8896-.5674l-4.3831 2.3908c-.466.2541-1.0132-.22-.833-.716l1.3077-3.5959h-6.705c-.154 0-.3064-.0627-.4152-.172l-4.6966-4.6966c-.1088-.1092-.1719-.2606-.1719-.4151V24.728c0-.3242.2628-.5871.5871-.5871h15.0293c.3243 0 .5871.2629.5871.5871v2.4018c.8192-.2579 1.6855-.4183 2.5832-.4674V22.184H25.1809v20.7044c0 .3243-.2628.5871-.5871.5871s-.5871-.2628-.5871-.5871V19.092c0-1.7049 1.3871-3.092 3.0919-3.092h17.5343c1.7049 0 3.092 1.3871 3.092 3.092Zm-3.092 35.7339c1.0575 0 1.9178-.8604 1.9178-1.9179v-2.544H25.1808v2.544c0 1.0575.8603 1.9179 1.9178 1.9179h17.5343ZM25.1808 21.0098V19.092c0-1.0575.8602-1.9179 1.9178-1.9179h17.5342c1.0575 0 1.9179.8604 1.9179 1.9179v1.9178H25.1808Zm4.5877 17.1429 2.6922 2.6922v-2.6922h-2.6922Zm3.8664 3.5225v-4.1097c0-.3242-.2628-.5871-.5871-.5871h-4.1096V25.3151h13.8551v2.2645c-.6047.2752-1.1751.6063-1.7045.9855-.0662-.0259-.1379-.0406-.2133-.0406h-3.131c-.3243 0-.5871.2629-.5871.5871 0 .3243.2628.5871.5871.5871h2.0237c-.5732.5886-1.0673 1.246-1.4668 1.957h-6.8191c-.3243 0-.5871.2629-.5871.5871 0 .3242.2628.5871.5871.5871h6.2657c-.3819.9905-.5905 2.0579-.5905 3.1703 0 2.0832.7178 4.0542 2.0447 5.6751h-5.5673v-.0001Zm10.1853 1.9038c1.0544.3988 2.1707.601 3.3176.601 4.8557 0 8.8062-3.6695 8.8062-8.1801 0-4.5105-3.9505-8.1801-8.8062-8.1801-4.8557 0-8.8063 3.6696-8.8063 8.1801 0 2.2173.9403 4.2934 2.6477 5.8457.1763.1603.2383.4111.1569.635l-1.0566 2.9059 3.2519-1.7738c.1502-.0819.3287-.0943.4888-.0337Zm-9.2069-25.0741h2.5049c.3243 0 .5871.2628.5871.5871 0 .3242-.2628.5871-.5871.5871h-2.5049c-.3243 0-.5871-.2629-.5871-.5871 0-.3242.2628-.5871.5871-.5871Zm2.5049 32.5636h-2.5049c-.3243 0-.5871.2629-.5871.5871v1.8787c0 .3242.2628.5871.5871.5871h2.5049c.3243 0 .5871-.2629.5871-.5871v-1.8787c0-.3243-.2628-.5871-.5871-.5871Zm-.5871 1.8787h-1.3307v-.7045h1.3307v.7045Zm-1.2915-24.4227h-3.7574c-.3243 0-.5871.2628-.5871.5871 0 .3242.2628.5871.5871.5871h3.7574c.3243 0 .5871-.2629.5871-.5871 0-.3243-.2628-.5871-.5871-.5871Zm-3.7574 6.2622h4.3836c.3243 0 .587.2628.5871.5871 0 .3242-.2628.5871-.5871.5871h-4.3836c-.3243 0-.5871-.2629-.5871-.5871 0-.3242.2628-.5871.5871-.5871Zm18.7476-.6654c0 .3242-.2628.5871-.5871.5871s-.5871-.2629-.5872-.5871v-.6262c0-.7121-.5794-1.2916-1.2916-1.2916h-.9393c-.8848 0-1.6046.7199-1.6046 1.6047s.7198 1.6047 1.6046 1.6047h.6263c1.5323 0 2.7789 1.2466 2.7789 2.7789 0 1.4398-1.1008 2.6272-2.5049 2.7652v1.3052c0 .3242-.2628.5871-.5871.5871s-.5871-.2629-.5871-.5871v-1.2916h-.0392c-1.3596 0-2.4658-1.1061-2.4658-2.4658 0-.3242.2628-.5871.5871-.5871s.5872.2629.5872.5871c0 .7122.5793 1.2916 1.2915 1.2916h.9393c.8849 0 1.6047-.7198 1.6047-1.6047 0-.8848-.7198-1.6047-1.6047-1.6047h-.6262c-1.5323 0-2.7789-1.2465-2.7789-2.7788 0-1.4398 1.1008-2.6272 2.505-2.7652v-1.3053c0-.3242.2628-.5871.5871-.5871s.5871.2629.5871.5871v1.2916h.0391c1.3596 0 2.4658 1.1062 2.4658 2.4658v.6262Z" fill="#fff"/><defs><linearGradient id="a" x1="-35.8489" y1="35.8489" x2="35.8489" y2="107.547" gradientUnits="userSpaceOnUse"><stop stop-color="#33D35E"/><stop offset="1" stop-color="#2AB6D9"/></linearGradient></defs></svg>